<svg width="433" height="54" viewBox="0 0 433 54" fill="none" xmlns="http://www.w3.org/2000/svg">
<path d="M16.3353 41.4427C7.65857 41.4427 1.54942 35.4221 1.54942 26.1698C1.54942 16.9176 7.65857 10.897 16.3353 10.897C23.9939 10.897 29.7932 15.1911 29.7932 21.92V22.4512H26.3844V21.92C26.3844 16.8733 22.8872 13.9515 16.3796 13.9515C8.98664 13.9515 4.86961 18.1128 4.86961 26.1698C4.86961 34.2268 8.98664 38.3881 16.3796 38.3881C22.8872 38.3881 26.3844 35.4664 26.3844 30.4197V29.8884H29.7932V30.4197C29.7932 37.1486 24.0382 41.4427 16.3353 41.4427ZM44.7122 41.4427C37.5849 41.4427 32.8481 36.7059 32.8481 30.0655C32.8481 23.4251 37.5849 18.6883 44.7122 18.6883C51.8838 18.6883 56.6206 23.4251 56.6206 30.0655C56.6206 36.7059 51.8838 41.4427 44.7122 41.4427ZM44.7122 38.6095C50.7328 38.6095 53.5218 35.3778 53.5218 30.0655C53.5218 24.7975 50.7328 21.5216 44.7122 21.5216C38.6916 21.5216 35.9469 24.7975 35.9469 30.0655C35.9469 35.3778 38.6916 38.6095 44.7122 38.6095ZM63.9458 41H60.8027V19.131H63.6359V25.7271H63.813C64.4327 22.0528 66.9561 18.6883 72.4012 18.6883C77.2708 18.6883 80.0155 21.6986 80.7238 25.9485H80.9451C81.5649 22.1856 84.1768 18.6883 89.6662 18.6883C95.3769 18.6883 98.3429 22.7168 98.3429 28.2505V41H95.1998V28.6932C95.1998 23.8236 93.1192 21.5658 88.5152 21.5658C83.2471 21.5658 81.1222 24.6204 81.1222 30.4197V41H77.9791V28.6932C77.9791 23.8236 75.9427 21.5658 71.3387 21.5658C66.0264 21.5658 63.9458 24.6204 63.9458 30.4197V41ZM106.615 41H103.472V19.131H106.305V25.7271H106.483C107.102 22.0528 109.626 18.6883 115.071 18.6883C119.94 18.6883 122.685 21.6986 123.393 25.9485H123.615C124.235 22.1856 126.846 18.6883 132.336 18.6883C138.046 18.6883 141.013 22.7168 141.013 28.2505V41H137.869V28.6932C137.869 23.8236 135.789 21.5658 131.185 21.5658C125.917 21.5658 123.792 24.6204 123.792 30.4197V41H120.649V28.6932C120.649 23.8236 118.612 21.5658 114.008 21.5658C108.696 21.5658 106.615 24.6204 106.615 30.4197V41ZM155.306 41.4427C149.064 41.4427 146.009 37.1043 146.009 31.9248V19.131H149.152V31.4379C149.152 35.9976 151.366 38.6095 156.412 38.6095C161.769 38.6095 164.558 35.3778 164.558 29.7556V19.131H167.701V41H164.868V34.1825H164.646C163.894 37.9012 160.751 41.4427 155.306 41.4427ZM176.132 41H172.989V19.131H175.822V25.1074H176.043C176.707 21.6101 179.186 18.6883 183.746 18.6883C188.793 18.6883 191.006 22.4069 191.006 26.4797V28.6489H187.863V26.9667C187.863 23.2481 186.314 21.433 182.507 21.433C178.08 21.433 176.132 24.222 176.132 29.1359V41ZM205.051 41.4427C198.012 41.4427 193.541 37.0158 193.541 30.0655C193.541 23.4251 197.968 18.6883 205.007 18.6883C211.426 18.6883 215.985 22.4069 215.985 28.9145C215.985 29.7114 215.897 30.3754 215.764 30.9509H196.507C196.684 35.8648 199.207 38.8308 205.007 38.8308C210.142 38.8308 212.532 36.9272 212.532 33.7399V33.43H215.676V33.7399C215.676 38.2996 211.16 41.4427 205.051 41.4427ZM204.962 21.3002C199.296 21.3002 196.728 24.222 196.507 29.0031H213.019C213.019 28.7817 213.019 28.5604 213.019 28.339C213.019 23.735 210.098 21.3002 204.962 21.3002Z" fill="white"/>
<path d="M399.464 45.95V44.9789H398.493V44.0078H397.522V43.0406H396.555V42.0694H395.583V32.37H403.345V31.3989H399.464V30.4278H398.493V29.4605H397.522V28.4895H396.555V27.5184H395.583V14.9095H398.493V12H428.562V12.9711H429.534V13.9383H430.501V14.9095H431.472V15.8805H432.443V25.58H424.682V26.5511H428.562V27.5184H429.534V28.4895H430.501V29.4605H431.472V30.4278H432.443V43.0406H429.534V45.95H399.464Z" fill="#2A3138"/>
<path d="M431.472 24.6096V16.8485H430.501V15.8813H429.534V14.9102H428.563V13.9391H427.591V12.9718H399.464V15.8813H396.555V26.5518H397.522V27.5191H398.493V28.4902H399.464V29.4613H400.431V30.4286H404.312V31.3997H405.283V32.3707H406.254V33.338H396.555V41.0991H397.522V42.0702H398.493V43.0413H399.464V44.0086H400.431V44.9797H428.563V42.0702H431.472V31.3997H430.501V30.4286H429.534V29.4613H428.563V28.4902H427.591V27.5191H423.711V26.5518H422.744V25.5808H421.773V24.6096H431.472Z" fill="#0040FF"/>
<path d="M424.682 38.1897H427.591V27.5191H421.773V24.6097H415.954V21.7002H410.135V20.7291H427.591V12.9718H399.464V15.8813H396.555V26.5518H402.374V29.4613H408.192V32.3707H414.011V33.338H396.555V41.0991H424.682V38.1897Z" fill="white"/>
<path d="M430.501 40.128H429.53V39.1569H428.559V38.1858H425.649V39.1569H426.62V40.128H427.591V41.0991H428.562V42.0701H431.472V41.0991H430.501V40.128ZM398.493 28.4902H399.464V29.4612H400.435V30.4323H404.316V31.4034H405.287V32.3745H406.258V33.3456H414.019V32.3745H408.2V29.4651H402.381V26.5556H397.53V27.5267H398.501V28.4978L398.493 28.4902ZM427.591 43.0412H426.62V42.0701H425.649V41.0991H397.518V42.0701H398.489V43.0412H399.46V44.0124H400.431V44.9835H428.562V44.0124H427.591V43.0412ZM430.501 23.6385V22.6674H429.53V21.6963H428.559V20.7252H411.098V21.6963H415.95V22.6674H416.921V23.6385H417.892V24.6096H431.472V23.6385H430.501Z" fill="#0084FF"/>
<path d="M399.464 40.1273H423.711V37.2178H426.624V28.4895H420.801V25.58H414.983V22.6705H409.164V19.7611H426.624V13.9384H400.431V16.8478H397.522V25.58H403.345V28.4895H409.164V31.3989H414.983V34.3084H397.522V40.1273H399.464Z" fill="#A8F4FF"/>
<path opacity="0.55" d="M416.925 36.2502H399.464V40.1307H400.435V37.2213H417.896V34.3118H416.925V36.2502ZM423.711 31.3985H426.621V30.4274H423.711V31.3985ZM402.374 15.8801V18.7896H399.464V25.5796H400.435V19.7607H403.345V16.8512H426.624V15.8801H402.374ZM412.073 24.6085V25.5796H414.983V24.6085H412.073ZM417.892 28.4891H420.802V27.518H417.892V28.4891Z" fill="#209BAC"/>
<path opacity="0.33" d="M415.954 25.5811H413.044V26.5522H415.954V25.5811ZM418.863 28.4906V29.4617H421.773V28.4906H418.863ZM424.682 32.3711H426.621V31.4H424.682V32.3711ZM403.345 16.8489V19.7584H400.435V25.5773H401.407V20.7257H404.316V17.8162H426.624V16.8451H403.345V16.8489ZM417.892 37.2189H400.432V40.1284H401.403V38.1901H418.863V35.2806H417.892V37.2189Z" fill="#209BAC"/>
<path opacity="0.1" d="M404.312 17.8186V20.7281H401.403V25.5797H402.374V21.6992H405.283V18.7897H426.624V17.8186H404.316H404.312ZM415.954 26.5508H414.016V27.5219H416.925V26.5508H415.954ZM419.834 29.4602V30.4313H422.744V29.4602H419.834ZM418.863 38.1886H401.403V40.127H402.374V39.1559H419.834V36.2464H418.863V38.1848V38.1886ZM425.653 33.337H426.624V32.3659H425.653V33.337Z" fill="#209BAC"/>
<path d="M414.983 22.6709H410.131V23.6421H414.983V22.6709ZM414.983 34.3088H397.522V40.1277H398.493V35.2761H415.954V32.3666H414.983V34.305V34.3088ZM415.954 26.5515H420.805V25.5804H415.954V26.5515ZM400.431 13.9388V16.8482H397.522V25.5766H398.493V17.8155H401.402V14.906H426.62V13.9349H400.431V13.9388ZM421.773 29.461H426.624V28.4899H421.773V29.461ZM403.345 26.5515V28.4899H404.316V26.5515H403.345ZM409.164 29.461V31.3993H410.135V29.461H409.164Z" fill="#209BAC"/>
<path opacity="0.78" d="M415.954 35.2802H398.493V40.1318H399.464V36.2512H416.925V33.3418H415.954V35.2802ZM411.102 23.6385V24.6096H414.983V23.6385H411.102ZM401.403 14.9102V17.8196H398.493V25.5807H399.464V18.7907H402.374V15.8812H426.624V14.9102H401.406H401.403ZM416.925 26.5518V27.5229H420.805V26.5518H416.925ZM422.744 29.4612V30.4323H426.624V29.4612H422.744ZM404.312 27.5191V28.4902H405.283V27.5191H404.312ZM410.135 30.4285V31.3996H411.106V30.4285H410.135Z" fill="#209BAC"/>
<path d="M275.935 45.9438V44.9729H274.964V44.002H273.997V43.0349H273.026V42.064H272.055V41.0931H271.084V40.1221H270.117V39.155H269.146V14.9089H272.055V12H299.21V12.9709H300.181V13.938H301.148V14.9089H302.119V15.8798H303.09V16.8469H304.061V17.8178H305.028V18.7888H305.999V43.0349H303.09V45.9438H275.935Z" fill="#2A3138"/>
<path d="M302.119 44.9739V42.0649H305.028V19.7606H304.061V18.7897H303.09V17.8188H302.119V16.8478H301.148V15.8807H300.181V14.9098H299.21V13.9389H298.239V12.9718H273.026V15.8807H270.117V38.1851H271.084V39.156H272.055V40.1231H273.026V41.094H273.997V42.0649H274.964V43.0358H275.935V44.0029H276.905V44.9739H302.119Z" fill="#0040FF"/>
<path d="M298.239 15.8807V12.9718H273.026V15.8807H270.117V38.1851H273.026V41.094H298.239V38.1851H301.148V15.8807H298.239ZM287.574 33.3343H283.694V20.7277H287.574V33.3343Z" fill="white"/>
<path d="M285.632 22.6685H286.603V23.6394H287.574V20.7305H284.665V21.7014H285.636V22.6723L285.632 22.6685ZM271.084 39.1549H272.055V40.1259H273.026V38.1879H271.088V39.1588L271.084 39.1549ZM304.061 41.093V40.122H303.09V39.1511H302.119V38.1802H299.21V39.1511H300.181V40.122H301.152V41.093H302.123V42.0638H305.032V41.093H304.061ZM301.148 43.0348H300.177V42.0638H299.206V41.093H273.993V42.0638H274.964V43.0348H275.935V44.0057H276.906V44.9766H302.119V44.0057H301.148V43.0348Z" fill="#0084FF"/>
<path d="M275.935 13.9384H273.997V16.8473H271.088V37.2136H273.997V40.1225H297.272V37.2136H300.181V16.8473H297.272V13.9384H275.935ZM282.724 33.3337V19.7562H288.542V34.3047H282.724V33.3337Z" fill="#A8F4FF"/>
<path opacity="0.33" d="M297.272 16.8467H276.906V19.7556H273.997V38.1801H274.968V20.7227H277.877V17.8138H298.243V16.8429H297.272V16.8467ZM291.451 37.213H286.6V38.184H292.418V23.6355H291.447V37.213H291.451Z" fill="#209BAC"/>
<path d="M288.542 34.3042H283.691V35.2751H289.509V20.7266H288.538V34.3042H288.542ZM273.997 13.9379V16.8468H271.088V37.2131H272.059V17.8177H274.968V14.9088H297.272V13.9379H273.997ZM273.997 39.1549V40.1259H274.968V38.1879H273.997V39.1587V39.1549ZM299.21 16.8468H298.239V17.8177H300.177V16.8468H299.206H299.21Z" fill="#209BAC"/>
<path opacity="0.78" d="M289.513 35.276H284.662V36.2469H290.48V21.6984H289.509V35.276H289.513ZM274.964 17.8186H272.055V37.214H273.026V18.7895H275.935V15.8806H297.272V14.9097H274.968V17.8186H274.964ZM299.21 17.8186V18.7895H300.181V17.8186H299.21ZM274.964 40.1229H275.935V39.152H274.964V40.1229Z" fill="#209BAC"/>
<path opacity="0.55" d="M275.935 15.88V18.789H273.026V37.2134H273.997V19.756H276.906V16.8471H297.272V15.8762H275.935V15.88ZM290.483 36.2463H285.632V37.2172H291.45V22.6688H290.479V36.2463H290.483Z" fill="#209BAC"/>
<path opacity="0.1" d="M298.239 17.8184H277.873V20.7273H274.964V39.1518H275.935V21.6944H278.844V18.7855H299.21V17.8146H298.239V17.8184ZM292.421 38.1847H287.57V39.1556H293.388V24.6072H292.417V38.1847H292.421Z" fill="#209BAC"/>
<path d="M357.317 45.9438V44.9729H356.346V44.002H355.376V43.0349H354.408V42.064H353.438V12H386.41V12.9709H387.381V13.938H388.352V14.9089H389.319V15.8798H390.29V25.5775H381.563H382.531V26.5484H383.502V27.5155H384.472V32.3663H386.41V33.3334H387.381V34.3043H388.352V35.2752H389.319V36.2461H390.29V45.9438H357.317Z" fill="#2A3138"/>
<path d="M355.375 42.0649H356.346V43.0358H357.317V44.0029H358.288V44.9739H389.319V37.2141H388.352V36.247H387.381V35.2762H386.41V34.3052H385.439V33.3343H383.501V28.4874H382.53V27.5165H381.563V26.5493H380.592V25.5785H379.621V24.6075H389.319V16.8478H388.352V15.8807H387.381V14.9098H386.41V13.9389H385.439V12.9718H354.408V41.094H355.375V42.0649Z" fill="#0040FF"/>
<path d="M385.439 33.3343H367.986V29.4583H379.621V24.6075H367.986V20.7277H385.439V12.9718H354.408V41.094H385.439V33.3343Z" fill="white"/>
<path d="M388.352 43.0355H387.381V42.0645H386.41V41.0937H355.375V42.0645H356.346V43.0355H357.317V44.0064H358.288V44.9773H389.323V44.0064H388.352V43.0355ZM369.924 31.396H370.895V32.3668H371.866V33.3378H383.501V32.3668H382.531V31.396H381.56V30.425H380.589V29.4541H368.953V30.425H369.924V31.396ZM388.352 23.6363V22.6653H387.381V21.6944H386.41V20.7235H368.953V21.6944H369.924V22.6653H370.895V23.6363H371.866V24.6072H389.323V23.6363H388.352Z" fill="#0084FF"/>
<path d="M382.531 40.1225H384.472V34.3047H367.015V28.4868H378.651V25.5779H367.015V19.76H384.472V13.9384H355.375V40.1225H382.531Z" fill="#A8F4FF"/>
<path d="M355.375 13.9379V40.122H356.346V14.9088H384.472V13.9379H355.379H355.375ZM367.986 35.2751H384.472V34.3042H367.986V35.2751ZM378.651 25.5774H367.982V26.5483H378.651V25.5774Z" fill="#209BAC"/>
<path opacity="0.78" d="M368.953 36.2473H384.468V35.2764H368.953V36.2473ZM356.346 14.9101V40.1233H357.317V15.8772H384.472V14.9062H356.346V14.9101ZM378.65 27.5167V26.5458H368.953V27.5167H378.65Z" fill="#209BAC"/>
<path opacity="0.55" d="M369.924 36.246V37.2169H384.472V36.246H369.924ZM378.651 27.5154H369.924V28.4863H378.651V27.5154ZM357.317 15.8796V40.1258H358.288V16.8506H384.472V15.8796H357.317Z" fill="#209BAC"/>
<path opacity="0.33" d="M358.288 16.8463V40.1216H359.259V17.8172H384.472V16.8463H358.288ZM370.895 38.1836H384.472V37.2126H370.895V38.1836Z" fill="#209BAC"/>
<path opacity="0.1" d="M371.862 39.1556H384.469V38.1847H371.862V39.1556ZM359.255 17.8184V40.1227H360.226V18.7855H384.472V17.8146H359.259L359.255 17.8184Z" fill="#209BAC"/>
<path d="M315.171 45.9438V44.9729H314.2V44.002H313.23V43.0349H312.262V42.064H311.292V12H338.447V12.9709H339.418V13.938H340.385V14.9089H341.355V15.8798H342.326V16.8469H343.294V17.8178H344.264V18.7888H345.235V19.7597H346.206V20.7268H347.173V21.6977H348.144V40.1221H345.235V43.0349H342.326V45.9438H315.171Z" fill="#2A3138"/>
<path d="M313.229 42.0649H314.2V43.0358H315.171V44.0029H316.142V44.9739H341.355V42.0649H344.264V39.156H347.173V22.6695H346.206V21.6986H345.235V20.7277H344.264V19.7606H343.293V18.7897H342.326V17.8188H341.355V16.8478H340.384V15.8807H339.417V14.9098H338.446V13.9389H337.475V12.9718H312.262V41.094H313.229V42.0649Z" fill="#0040FF"/>
<path d="M340.384 18.7897V15.8807H337.475V12.9718H312.262V41.0978H337.475V38.1889H340.384V35.2799H343.293V18.7935H340.384V18.7897ZM329.72 33.3343H325.84V20.7277H329.72V33.3343Z" fill="white"/>
<path d="M327.778 22.6685H328.749V23.6394H329.72V20.7305H326.811V21.7014H327.782V22.6723L327.778 22.6685ZM343.293 40.122H342.323V39.1511H341.352V38.1802H338.443V39.1511H339.414V40.122H340.385V41.093H341.355V42.0638H344.264V41.093H343.293V40.122ZM344.264 35.2751H341.355V36.246H344.264V35.2751ZM346.206 38.184V37.2131H345.235V36.2422H342.326V37.2131H343.297V38.184H344.268V39.1549H347.177V38.184H346.206ZM340.385 43.0348H339.414V42.0638H338.443V41.093H313.229V42.0638H314.2V43.0348H315.171V44.0057H316.142V44.9766H341.355V44.0057H340.385V43.0348Z" fill="#0084FF"/>
<path d="M339.418 36.2461V34.3081H342.326V19.7596H339.418V16.8507H336.509V13.9418H313.233V40.1259H336.509V37.217H339.418V36.2461ZM330.687 20.7267V34.3043H324.869V19.7558H330.687V20.7267Z" fill="#A8F4FF"/>
<path opacity="0.55" d="M332.629 36.246H327.778V37.2169H333.596V22.6684H332.625V36.246H332.629ZM315.171 15.8796V40.1258H316.142V16.8506H336.509V15.8796H315.171Z" fill="#209BAC"/>
<path d="M330.687 34.3042H325.836V35.2751H331.654V20.7266H330.683V34.3042H330.687ZM313.229 40.122H314.2V14.9088H336.505V13.9379H313.229V40.122ZM341.355 19.7595H340.385V20.7305H342.323V19.7595H341.352H341.355ZM337.476 16.8468V17.8177H339.414V16.8468H337.476Z" fill="#209BAC"/>
<path opacity="0.78" d="M331.658 35.2764H326.807V36.2473H332.625V21.6988H331.654V35.2764H331.658ZM314.2 40.1233H315.171V15.8772H336.508V14.9062H314.204V40.1195L314.2 40.1233ZM338.446 18.7899H339.417V17.819H338.446V18.7899ZM341.355 20.7279V21.6988H342.326V20.7279H341.355Z" fill="#209BAC"/>
<path opacity="0.33" d="M333.596 37.2126H328.745V38.1836H334.563V23.6351H333.592V37.2126H333.596ZM316.142 16.8463V40.1216H317.113V17.8172H337.479V16.8463H316.142ZM341.355 19.7591H340.384V20.73H342.322V19.7591H341.352H341.355Z" fill="#209BAC"/>
<path opacity="0.1" d="M334.567 38.1847H329.716V39.1556H335.534V24.6072H334.563V38.1847H334.567ZM317.109 17.8184V40.1227H318.08V18.7855H338.447V17.8146H317.109V17.8184ZM341.356 20.7273V21.6983H342.326V20.7273H341.356Z" fill="#209BAC"/>
<path d="M233.789 45.9438V44.9729H232.818V44.002H231.851V43.0349H230.88V42.064H229.909V41.0931H228.938V40.1221H227.971V39.155H227V14.9089H229.909V12H259.973V12.9709H260.944V13.938H261.915V14.9089H262.882V15.8798H263.853V25.5775H246.395V32.3663H259.973V33.3334H260.944V34.3043H261.915V35.2752H262.882V36.2461H263.853V45.9438H233.789Z" fill="#2A3138"/>
<path d="M228.938 39.156H229.909V40.1231H230.88V41.094H231.851V42.0649H232.818V43.0358H233.789V44.0029H234.759V44.9739H262.882V37.2141H261.915V36.247H260.944V35.2762H259.973V34.3052H259.002V33.3343H245.428V24.6075H262.882V16.8478H261.915V15.8807H260.944V14.9098H259.973V13.9389H259.002V12.9718H230.88V15.8807H227.971V38.1851H228.938V39.156Z" fill="#0040FF"/>
<path d="M259.002 20.7277V12.9718H230.88V15.8807H227.971V38.1851H230.88V41.094H259.002V33.3343H241.548V20.7277H259.002Z" fill="white"/>
<path d="M261.915 43.0355H260.944V42.0645H259.973V41.0937H231.847V42.0645H232.818V43.0355H233.789V44.0064H234.76V44.9773H262.886V44.0064H261.915V43.0355ZM228.938 39.1556H229.909V40.1265H230.88V38.1886H228.942V39.1594L228.938 39.1556ZM261.915 23.6363V22.6653H260.944V21.6944H259.973V20.7235H242.516V21.6944H243.486V22.6653H244.457V23.6363H245.428V24.6072H262.886V23.6363H261.915Z" fill="#0084FF"/>
<path d="M256.093 40.1225H258.035V34.3047H240.578V19.76H258.035V13.9384H231.851V16.8473H228.938V37.2136H231.851V40.1225H256.093Z" fill="#A8F4FF"/>
<path d="M231.851 13.9379V16.8468H228.942V37.2131H229.913V17.8177H232.822V14.9088H258.035V13.9379H231.851ZM241.549 35.2751H258.035V34.3042H241.549V35.2751ZM231.851 39.1549V40.1259H232.822V38.1879H231.851V39.1587V39.1549Z" fill="#209BAC"/>
<path opacity="0.55" d="M233.789 15.88V18.789H230.88V37.2134H231.851V19.756H234.76V16.8471H258.035V15.8762H233.789V15.88ZM243.486 36.2463V37.2172H258.035V36.2463H243.486Z" fill="#209BAC"/>
<path opacity="0.78" d="M242.516 36.2469H258.031V35.276H242.516V36.2469ZM232.818 14.9097V17.8186H229.909V37.214H230.88V18.7895H233.789V15.8806H258.035V14.9097H232.822H232.818ZM232.818 40.1229H233.789V39.152H232.818V40.1229Z" fill="#209BAC"/>
<path opacity="0.33" d="M244.458 38.184H258.035V37.213H244.458V38.184ZM234.76 16.8467V19.7556H231.851V38.1801H232.822V20.7227H235.731V17.8138H258.035V16.8429H234.76V16.8467Z" fill="#209BAC"/>
<path opacity="0.1" d="M235.727 17.8184V20.7273H232.818V39.1518H233.789V21.6944H236.698V18.7855H258.035V17.8146H235.731L235.727 17.8184ZM245.428 39.1556H258.035V38.1847H245.428V39.1556Z" fill="#209BAC"/>
</svg>
